<svg xmlns="http://www.w3.org/2000/svg" data-name="Layer 1" width="32" height="23" style=""><rect id="backgroundrect" width="100%" height="100%" x="0" y="0" fill="none" stroke="none"/><title/><g class="currentLayer" style=""><title>Layer 1</title><path d="M30.99512551771477,6.4441916562842625 A6.49,6.49 0 0 0 19.81512551771477,2.004191656284263 H12.175125517714768 A6.49,6.49 0 0 0 0.9951255177147686,6.4441916562842625 A84.11,84.11 0 0 0 -0.004874482285231352,18.534191656284264 c0,2.42 1,4 2.92,4.36 A5.41,5.41 0 0 0 3.9951255177147686,23.004191656284263 a3.9,3.9 0 0 0 3.8200000000000003,-2.8200000000000003 c0.3900000000000002,-1.1 1.09,-2.62 1.52,-3.54 A4,4 0 0 0 14.86512551771477,14.004191656284263 h2.26 a4,4 0 0 0 5.52,2.64 c0.43000000000000016,0.91 1.13,2.43 1.52,3.54 A3.9,3.9 0 0 0 27.99512551771477,23.004191656284263 a5.4,5.4 0 0 0 1.09,-0.11000000000000004 C30.99512551771477,22.504191656284263 31.99512551771477,20.954191656284262 31.99512551771477,18.534191656284264 A84.11,84.11 0 0 0 30.99512551771477,6.4441916562842625 zM6.88512551771477,19.854191656284264 a3,3 0 0 1 -3.77,2.06 C1.3651255177147688,21.544191656284262 0.9951255177147686,19.874191656284264 0.9951255177147686,18.534191656284264 a78.9,78.9 0 0 1 0.6200000000000003,-9.28 A6.52,6.52 0 0 0 6.995125517714769,13.004191656284263 v0 a4,4 0 0 0 1.5,3.11 C7.995125517714769,17.134191656284262 7.2951255177147685,18.684191656284263 6.88512551771477,19.854191656284264 zM10.995125517714769,16.004191656284263 a3,3 0 0 1 -3,-3 a2.89,2.89 0 0 1 0,-0.43000000000000016 l0,-0.5700000000000003 H7.495125517714769 a5.5,5.5 0 1 1 4.57,-2.44 L11.745125517714769,10.004191656284263 l0.53,0.25 A3,3 0 0 1 10.995125517714769,16.004191656284263 zm4,-3 a4,4 0 0 0 -1.82,-3.35 A6.48,6.48 0 0 0 12.995125517714769,3.004191656284263 H18.99512551771477 a6.48,6.48 0 0 0 -0.22000000000000008,6.65 A4,4 0 0 0 16.99512551771477,13.004191656284263 H14.995125517714769 zm3,0 a3,3 0 0 1 1.73,-2.71 L20.24512551771477,10.004191656284263 l-0.3200000000000002,-0.48000000000000015 A5.5,5.5 0 1 1 24.515125517714768,12.004191656284263 H23.875125517714768 L23.99512551771477,12.574191656284263 A2.89,2.89 0 0 1 23.99512551771477,13.004191656284263 A3,3 0 0 1 17.99512551771477,13.004191656284263 zm10.88,8.91 a3,3 0 0 1 -3.77,-2.06 C24.695125517714768,18.684191656284263 23.99512551771477,17.134191656284262 23.49512551771477,16.114191656284262 A4,4 0 0 0 24.99512551771477,13.004191656284263 v0 a6.51,6.51 0 0 0 5.38,-3.73 A79,79 0 0 1 30.99512551771477,18.534191656284264 C30.99512551771477,19.874191656284264 30.625125517714768,21.544191656284262 28.875125517714768,21.914191656284263 z" id="svg_1" class="" fill="#ffffff" fill-opacity="1"/><path d="M9,8.004191656284263 h2 V5.004191656284263 H9 V3.004191656284263 H6 v2 H4 v3 H6 v2 H9 V8.004191656284263 zM8,9.004191656284263 H7 V7.004191656284263 H5 V6.004191656284263 H7 V4.004191656284263 H8 v2 h2 v1 H8 v2 z" id="svg_2" class="selected" fill="#ffffff" fill-opacity="1"/><path d="M24.5,5.091148172192504 A1.5,1.5 0 1 0 23,3.5911481721925043 A1.5,1.5 0 0 0 24.5,5.091148172192504 zm0,-2 a0.5,0.5 0 1 1 -0.5,0.5 A0.5,0.5 0 0 1 24.5,3.0911481721925043 z" id="svg_3" class="" fill="#ffffff" fill-opacity="1"/><path d="M24.5,5.091148172192504 A1.5,1.5 0 1 0 23,3.5911481721925043 A1.5,1.5 0 0 0 24.5,5.091148172192504 zm0,-2 a0.5,0.5 0 1 1 -0.5,0.5 A0.5,0.5 0 0 1 24.5,3.0911481721925043 z" class="" id="svg_12" fill="#ffffff" fill-opacity="1"/><path d="M24.5,11.004191656284263 A1.5,1.5 0 1 0 23,9.504191656284263 A1.5,1.5 0 0 0 24.5,11.004191656284263 zm0,-2 a0.5,0.5 0 1 1 -0.5,0.5 A0.5,0.5 0 0 1 24.5,9.004191656284263 z" id="svg_4" class="" fill="#ffffff" fill-opacity="1"/><path d="M21.5,8.004191656284263 A1.5,1.5 0 1 0 20,6.504191656284263 A1.5,1.5 0 0 0 21.5,8.004191656284263 zm0,-2 a0.5,0.5 0 1 1 -0.5,0.5 A0.5,0.5 0 0 1 21.5,6.004191656284263 z" id="svg_5" class="" fill="#ffffff" fill-opacity="1"/><path d="M27.5,8.004191656284263 A1.5,1.5 0 1 0 26,6.504191656284263 A1.5,1.5 0 0 0 27.5,8.004191656284263 zm0,-2 a0.5,0.5 0 1 1 -0.5,0.5 A0.5,0.5 0 0 1 27.5,6.004191656284263 z" id="svg_6" class="" fill="#ffffff" fill-opacity="1"/><path d="M11,11.004191656284263 a2,2 0 1 0 2,2 A2,2 0 0 0 11,11.004191656284263 zm0,3 a1,1 0 1 1 1,-1 A1,1 0 0 1 11,14.004191656284263 z" id="svg_7" class="" fill="#ffffff" fill-opacity="1"/><path d="M21,11.004191656284263 a2,2 0 1 0 2,2 A2,2 0 0 0 21,11.004191656284263 zm0,3 a1,1 0 1 1 1,-1 A1,1 0 0 1 21,14.004191656284263 z" id="svg_8" class="" fill="#ffffff" fill-opacity="1"/></g></svg>